<?xml version="1.0" encoding="iso-8859-1"?>
<!-- Generator: Adobe Illustrator 19.0.0, SVG Export Plug-In . SVG Version: 6.00 Build 0)  -->
<svg version="1.1" id="Layer_1" xmlns="http://www.w3.org/2000/svg" xmlns:xlink="http://www.w3.org/1999/xlink" x="0px" y="0px"
	 viewBox="0 0 512 512" style="enable-background:new 0 0 512 512;" xml:space="preserve">
<path style="fill:#79CAE8;" d="M397.584,504.163H114.416c-11.542,0-20.898-9.356-20.898-20.898V28.735
	c0-11.542,9.356-20.898,20.898-20.898h283.167c11.542,0,20.898,9.356,20.898,20.898v454.531
	C418.482,494.807,409.126,504.163,397.584,504.163z"/>
<g>
	<path style="fill:#CAF9F4;" d="M333.845,455.576h-155.69c-5.771,0-10.449,4.678-10.449,10.449v38.139h176.588v-38.139
		C344.294,460.253,339.616,455.576,333.845,455.576z"/>
	<rect x="119.641" y="33.959" style="fill:#CAF9F4;" width="272.718" height="219.429"/>
</g>
<g>
	<rect x="119.641" y="33.959" style="fill:#4B92B9;" width="26.122" height="219.429"/>
	<rect x="366.237" y="33.959" style="fill:#4B92B9;" width="26.122" height="219.429"/>
</g>
<polygon style="fill:#FFFFFF;" points="203.233,337.961 179.722,337.961 179.722,314.451 143.151,314.451 143.151,337.961 
	119.641,337.961 119.641,374.532 143.151,374.532 143.151,398.042 179.722,398.042 179.722,374.532 203.233,374.532 "/>
<g>
	<circle style="fill:#FF503D;" cx="329.738" cy="378.41" r="18.286"/>
	<circle style="fill:#FF503D;" cx="374.073" cy="334.085" r="18.286"/>
</g>
<path d="M397.584,0H114.416C98.573,0,85.682,12.891,85.682,28.735v454.531c0,15.844,12.891,28.735,28.735,28.735h283.167
	c15.844,0,28.735-12.891,28.735-28.735V28.735C426.318,12.891,413.427,0,397.584,0z M336.457,496.327h-19.644v-16.196H301.14v16.196
	h-19.644v-16.196h-15.673v16.196h-19.644v-16.196h-15.673v16.196H210.86v-16.196h-15.673v16.196h-19.644v-30.302
	c0-1.441,1.171-2.612,2.612-2.612h155.69c1.441,0,2.612,1.171,2.612,2.612V496.327z M410.645,483.265
	c0,7.202-5.859,13.061-13.061,13.061h-45.453v-30.302c0-10.082-8.203-18.286-18.286-18.286h-155.69
	c-10.082,0-18.286,8.203-18.286,18.286v30.302h-45.453c-7.202,0-13.061-5.859-13.061-13.061V28.735
	c0-7.202,5.859-13.061,13.061-13.061h283.167c7.202,0,13.061,5.859,13.061,13.061V483.265z"/>
<path d="M111.804,261.224h288.392V26.122H111.804V261.224z M153.6,245.551V41.796h204.8v203.755H153.6z M384.522,245.551h-10.449
	V41.796h10.449V245.551z M127.478,41.796h10.449v203.755h-10.449V41.796z"/>
<path d="M187.559,306.614h-52.245v23.51h-23.51v52.245h23.51v23.51h52.245v-23.51h23.51v-52.245h-23.51V306.614z M195.396,345.797
	v20.898h-23.51v23.51h-20.898v-23.51h-23.51v-20.898h23.51v-23.51h20.898v23.51H195.396z"/>
<path d="M311.271,359.94c-10.185,10.186-10.185,26.758,0,36.944c5.093,5.092,11.782,7.638,18.473,7.638
	c6.688,0,13.379-2.547,18.472-7.638c10.185-10.186,10.185-26.758,0-36.944C338.028,349.756,321.456,349.757,311.271,359.94z
	 M337.131,385.8c-4.074,4.076-10.704,4.075-14.777,0c-4.074-4.073-4.074-10.703,0-14.777c2.037-2.038,4.712-3.056,7.388-3.056
	s5.351,1.019,7.387,3.056C341.205,375.096,341.205,381.726,337.131,385.8z"/>
<path d="M392.544,315.609c-4.934-4.934-11.493-7.651-18.471-7.651s-13.538,2.718-18.471,7.651
	c-4.935,4.934-7.652,11.494-7.652,18.472c0,6.978,2.718,13.538,7.651,18.471c4.934,4.935,11.494,7.652,18.472,7.652
	s13.538-2.718,18.471-7.651c4.935-4.934,7.652-11.494,7.652-18.472C400.196,327.103,397.478,320.544,392.544,315.609
	C392.545,315.61,392.545,315.61,392.544,315.609z M381.461,341.47c-1.974,1.974-4.596,3.06-7.387,3.06s-5.415-1.087-7.388-3.062
	c-1.974-1.974-3.06-4.596-3.06-7.387s1.087-5.415,3.062-7.388c1.974-1.974,4.596-3.061,7.387-3.061s5.415,1.087,7.387,3.061
	l0.001,0.001c1.974,1.974,3.06,4.596,3.06,7.387C384.522,336.872,383.436,339.495,381.461,341.47z"/>
<rect x="214.204" y="295.184" width="31.347" height="15.673"/>
<rect x="266.449" y="295.184" width="31.347" height="15.673"/>
<g>
</g>
<g>
</g>
<g>
</g>
<g>
</g>
<g>
</g>
<g>
</g>
<g>
</g>
<g>
</g>
<g>
</g>
<g>
</g>
<g>
</g>
<g>
</g>
<g>
</g>
<g>
</g>
<g>
</g>
</svg>
